<svg width="187" height="37" viewBox="0 0 187 37" fill="none" xmlns="http://www.w3.org/2000/svg">
<g clip-path="url(#clip0_6122_22255)">
<g clip-path="url(#clip1_6122_22255)">
<rect x="20.5" y="11.1387" width="4.0537" height="9.62754" rx="2.02685" fill="#E0EF64"/>
<rect x="28.0547" y="0.5" width="4.0537" height="30.9095" rx="2.02685" fill="#E0EF64"/>
<rect x="35.6016" y="9.36719" width="4.0537" height="13.1745" rx="2.02685" fill="#E0EF64"/>
<path d="M10.1224 10.6933C9.32247 10.9071 8.78676 11.6601 8.8511 12.4855C8.95707 13.846 9.25208 16.1302 10.0612 19.1573C10.8703 22.1843 11.7544 24.3111 12.3414 25.543C12.6976 26.2904 13.5375 26.6756 14.3374 26.4619L16.8 25.8036C17.8744 25.5164 18.9782 26.1546 19.2653 27.2289L20.6494 32.4068C21.1074 34.1204 20.09 35.8802 18.3772 36.3381L15.1958 37.1885C15.1958 37.1885 7.23067 39.3176 2.38986 21.2079C-2.45095 3.09812 5.51415 0.969017 5.51415 0.969017L8.69556 0.118611C10.4085 -0.339255 12.1682 0.678136 12.6261 2.39104L14.0103 7.56968C14.2975 8.64403 13.6594 9.74781 12.585 10.035L10.1224 10.6933Z" fill="black"/>
<path d="M10.1224 10.6933C9.32247 10.9071 8.78676 11.6601 8.8511 12.4855C8.95707 13.846 9.25208 16.1302 10.0612 19.1573C10.8703 22.1843 11.7544 24.3111 12.3414 25.543C12.6976 26.2904 13.5375 26.6756 14.3374 26.4619L16.8 25.8036C17.8744 25.5164 18.9782 26.1546 19.2653 27.2289L20.6494 32.4068C21.1074 34.1204 20.09 35.8802 18.3772 36.3381L15.1958 37.1885C15.1958 37.1885 7.23067 39.3176 2.38986 21.2079C-2.45095 3.09812 5.51415 0.969017 5.51415 0.969017L8.69556 0.118611C10.4085 -0.339255 12.1682 0.678136 12.6261 2.39104L14.0103 7.56968C14.2975 8.64403 13.6594 9.74781 12.585 10.035L10.1224 10.6933Z" fill="url(#paint0_linear_6122_22255)" fill-opacity="0.4"/>
</g>
<path d="M48.6435 27.1426V8.23349H56.1037C57.5317 8.23349 58.7505 8.48893 59.7599 8.99982C60.7756 9.50456 61.5481 10.2216 62.0774 11.1511C62.6129 12.0744 62.8807 13.1608 62.8807 14.4103C62.8807 15.666 62.6098 16.7463 62.0682 17.6511C61.5265 18.5498 60.7417 19.2392 59.7138 19.7193C58.692 20.1994 57.4548 20.4395 56.0021 20.4395H51.0071V17.2264H55.3558C56.1191 17.2264 56.7531 17.1217 57.2578 16.9125C57.7625 16.7032 58.138 16.3893 58.3842 15.9707C58.6366 15.5521 58.7628 15.032 58.7628 14.4103C58.7628 13.7825 58.6366 13.2531 58.3842 12.8223C58.138 12.3914 57.7595 12.0652 57.2486 11.8436C56.7438 11.6158 56.1068 11.502 55.3374 11.502H52.6413V27.1426H48.6435ZM58.8551 18.5375L63.5547 27.1426H59.1413L54.5433 18.5375H58.8551ZM65.5421 27.1426V12.9608H69.4753V27.1426H65.5421ZM67.518 11.1326C66.9332 11.1326 66.4315 10.9387 66.013 10.551C65.6006 10.157 65.3944 9.68614 65.3944 9.13832C65.3944 8.59665 65.6006 8.13192 66.013 7.74414C66.4315 7.3502 66.9332 7.15323 67.518 7.15323C68.1027 7.15323 68.6013 7.3502 69.0137 7.74414C69.4323 8.13192 69.6415 8.59665 69.6415 9.13832C69.6415 9.68614 69.4323 10.157 69.0137 10.551C68.6013 10.9387 68.1027 11.1326 67.518 11.1326ZM76.4693 18.9437V27.1426H72.5361V12.9608H76.2847V15.4629H76.4509C76.7648 14.6381 77.2911 13.9856 78.0297 13.5055C78.7683 13.0192 79.6639 12.7761 80.7165 12.7761C81.7013 12.7761 82.56 12.9915 83.2925 13.4224C84.025 13.8533 84.5943 14.4688 85.0006 15.269C85.4068 16.063 85.61 17.0109 85.61 18.1127V27.1426H81.6767V18.8145C81.6829 17.9466 81.4613 17.2695 81.0119 16.7832C80.5626 16.2908 79.944 16.0446 79.1561 16.0446C78.6268 16.0446 78.159 16.1584 77.7527 16.3862C77.3526 16.6139 77.0387 16.9463 76.8109 17.3833C76.5894 17.8142 76.4755 18.3343 76.4693 18.9437ZM95.0091 32.7562C93.735 32.7562 92.6424 32.5808 91.7314 32.2299C90.8266 31.8852 90.1064 31.4144 89.5709 30.8173C89.0354 30.2202 88.6876 29.5493 88.5276 28.8045L92.1654 28.3152C92.2762 28.5983 92.4516 28.863 92.6916 29.1092C92.9317 29.3554 93.2487 29.5524 93.6426 29.7001C94.0427 29.854 94.529 29.9309 95.1014 29.9309C95.957 29.9309 96.6618 29.7217 97.2158 29.3031C97.7759 28.8907 98.056 28.1982 98.056 27.2257V24.6312H97.8898C97.7175 25.0252 97.4589 25.3975 97.1142 25.7484C96.7695 26.0993 96.3264 26.3855 95.7847 26.6071C95.243 26.8287 94.5967 26.9395 93.8458 26.9395C92.7809 26.9395 91.8114 26.6932 90.9374 26.2008C90.0695 25.7022 89.377 24.9421 88.86 23.9203C88.3491 22.8923 88.0936 21.5936 88.0936 20.024C88.0936 18.4174 88.3552 17.0756 88.8784 15.9984C89.4016 14.9212 90.0972 14.1149 90.9651 13.5794C91.8391 13.0439 92.7963 12.7761 93.8365 12.7761C94.6306 12.7761 95.2953 12.9115 95.8309 13.1824C96.3664 13.447 96.7972 13.7794 97.1235 14.1795C97.4559 14.5734 97.7113 14.9612 97.8898 15.3429H98.0375V12.9608H101.943V27.2811C101.943 28.4875 101.648 29.497 101.057 30.3095C100.466 31.122 99.6471 31.7314 98.6007 32.1376C97.5605 32.55 96.3633 32.7562 95.0091 32.7562ZM95.0922 23.9849C95.7262 23.9849 96.2617 23.8279 96.6987 23.514C97.1419 23.194 97.4805 22.7385 97.7144 22.1475C97.9544 21.5505 98.0745 20.8365 98.0745 20.0055C98.0745 19.1745 97.9575 18.4544 97.7236 17.845C97.4897 17.2295 97.1512 16.7524 96.708 16.4139C96.2648 16.0753 95.7262 15.9061 95.0922 15.9061C94.4459 15.9061 93.9012 16.0815 93.458 16.4324C93.0148 16.777 92.6793 17.2572 92.4516 17.8727C92.2238 18.4882 92.11 19.1992 92.11 20.0055C92.11 20.8242 92.2238 21.532 92.4516 22.1291C92.6855 22.72 93.021 23.1786 93.458 23.5048C93.9012 23.8249 94.4459 23.9849 95.0922 23.9849ZM118.556 8.23349H122.507V21.4181C122.507 22.6369 122.233 23.6956 121.685 24.5943C121.144 25.493 120.39 26.1854 119.423 26.6717C118.457 27.158 117.334 27.4011 116.053 27.4011C114.915 27.4011 113.881 27.2011 112.951 26.801C112.028 26.3947 111.295 25.7792 110.754 24.9544C110.212 24.1234 109.944 23.0801 109.95 21.8244H113.93C113.942 22.323 114.044 22.7508 114.234 23.1078C114.431 23.4586 114.699 23.7295 115.038 23.9203C115.382 24.1049 115.789 24.1973 116.256 24.1973C116.749 24.1973 117.164 24.0926 117.503 23.8833C117.848 23.6679 118.109 23.354 118.288 22.9416C118.466 22.5292 118.556 22.0214 118.556 21.4181V8.23349ZM132.112 27.4196C130.653 27.4196 129.397 27.1241 128.345 26.5332C127.298 25.9361 126.492 25.0929 125.926 24.0034C125.359 22.9077 125.076 21.612 125.076 20.1163C125.076 18.6575 125.359 17.3772 125.926 16.2754C126.492 15.1736 127.289 14.3149 128.317 13.6994C129.351 13.0839 130.564 12.7761 131.955 12.7761C132.89 12.7761 133.761 12.9269 134.568 13.2285C135.38 13.524 136.088 13.9702 136.691 14.5673C137.301 15.1644 137.775 15.9153 138.113 16.8201C138.452 17.7188 138.621 18.7714 138.621 19.9778V21.0581H126.646V18.6206H134.919C134.919 18.0543 134.796 17.5526 134.549 17.1156C134.303 16.6786 133.961 16.3369 133.524 16.0907C133.094 15.8384 132.592 15.7122 132.019 15.7122C131.422 15.7122 130.893 15.8507 130.431 16.1277C129.976 16.3985 129.619 16.7647 129.36 17.2264C129.102 17.6819 128.97 18.1897 128.963 18.7498V21.0673C128.963 21.769 129.093 22.3753 129.351 22.8862C129.616 23.3971 129.988 23.791 130.468 24.068C130.948 24.345 131.518 24.4835 132.176 24.4835C132.613 24.4835 133.014 24.4219 133.377 24.2988C133.74 24.1757 134.051 23.9911 134.309 23.7449C134.568 23.4986 134.765 23.197 134.9 22.84L138.538 23.0801C138.353 23.9541 137.975 24.7174 137.402 25.3699C136.836 26.0162 136.104 26.5209 135.205 26.8841C134.312 27.2411 133.281 27.4196 132.112 27.4196ZM145.031 18.9437V27.1426H141.098V12.9608H144.846V15.4629H145.013C145.327 14.6381 145.853 13.9856 146.591 13.5055C147.33 13.0192 148.226 12.7761 149.278 12.7761C150.263 12.7761 151.122 12.9915 151.854 13.4224C152.587 13.8533 153.156 14.4688 153.562 15.269C153.969 16.063 154.172 17.0109 154.172 18.1127V27.1426H150.238V18.8145C150.245 17.9466 150.023 17.2695 149.574 16.7832C149.124 16.2908 148.506 16.0446 147.718 16.0446C147.188 16.0446 146.721 16.1584 146.314 16.3862C145.914 16.6139 145.6 16.9463 145.373 17.3833C145.151 17.8142 145.037 18.3343 145.031 18.9437ZM161.115 18.9437V27.1426H157.182V12.9608H160.93V15.4629H161.096C161.41 14.6381 161.937 13.9856 162.675 13.5055C163.414 13.0192 164.309 12.7761 165.362 12.7761C166.347 12.7761 167.206 12.9915 167.938 13.4224C168.671 13.8533 169.24 14.4688 169.646 15.269C170.052 16.063 170.255 17.0109 170.255 18.1127V27.1426H166.322V18.8145C166.328 17.9466 166.107 17.2695 165.657 16.7832C165.208 16.2908 164.59 16.0446 163.802 16.0446C163.272 16.0446 162.805 16.1584 162.398 16.3862C161.998 16.6139 161.684 16.9463 161.456 17.3833C161.235 17.8142 161.121 18.3343 161.115 18.9437ZM175.186 32.4608C174.687 32.4608 174.22 32.4208 173.783 32.3407C173.352 32.2669 172.995 32.1715 172.711 32.0545L173.598 29.1184C174.059 29.26 174.475 29.3369 174.844 29.3493C175.22 29.3616 175.543 29.2754 175.814 29.0907C176.091 28.9061 176.315 28.5922 176.488 28.149L176.719 27.5488L171.631 12.9608H175.768L178.704 23.3755H178.851L181.815 12.9608H185.979L180.467 28.6752C180.202 29.4385 179.842 30.1033 179.387 30.6696C178.938 31.242 178.368 31.6821 177.679 31.9899C176.989 32.3038 176.158 32.4608 175.186 32.4608Z" fill="#0E1B30"/>
</g>
<defs>
<linearGradient id="paint0_linear_6122_22255" x1="19.4878" y1="5.27203" x2="7.6268" y2="25.7874" gradientUnits="userSpaceOnUse">
<stop stop-color="white"/>
<stop offset="1" stop-color="white" stop-opacity="0"/>
</linearGradient>
<clipPath id="clip0_6122_22255">
<rect width="187" height="37" fill="white"/>
</clipPath>
<clipPath id="clip1_6122_22255">
<rect y="-12.9277" width="55" height="62.8571" rx="12.1329" fill="white"/>
</clipPath>
</defs>
</svg>
