<svg width="323" height="64" viewBox="0 0 323 64" fill="none" xmlns="http://www.w3.org/2000/svg">
<path d="M37.5709 18.32C36.2009 18.3392 35.0364 19.3304 34.8053 20.6809C34.4245 22.9068 33.9728 26.6912 34.0452 31.8759C34.1177 37.0605 34.6751 40.831 35.1181 43.0453C35.3869 44.3887 36.5786 45.347 37.9486 45.328L42.1665 45.269C44.0066 45.2433 45.5192 46.7142 45.5449 48.5543L45.6689 57.4227C45.71 60.3577 43.3648 62.7694 40.4311 62.8104L34.9821 62.8866C34.9821 62.8866 21.3398 63.0774 20.9061 32.0597C20.4723 1.04194 34.1147 0.85118 34.1147 0.85118L39.5637 0.774981C42.4975 0.733956 44.909 3.07898 44.9501 6.01277L45.0741 14.8826C45.0998 16.7227 43.6289 18.2353 41.7888 18.261L37.5709 18.32Z" fill="white"/>
<path d="M37.3287 18.32C35.9587 18.3392 34.7942 19.3304 34.5632 20.6809C34.1823 22.9068 33.7306 26.6912 33.803 31.8759C33.8755 37.0605 34.4329 40.831 34.8759 43.0453C35.1447 44.3887 36.3364 45.347 37.7064 45.328L41.9243 45.269C43.7644 45.2433 45.277 46.7142 45.3027 48.5543L45.4267 57.4227C45.4678 60.3577 43.1226 62.7694 40.189 62.8104L34.74 62.8866C34.74 62.8866 21.0976 63.0774 20.6639 32.0597C20.2302 1.04194 33.8725 0.85118 33.8725 0.85118L39.3215 0.774981C42.2553 0.733956 44.6668 3.07898 44.7079 6.01277L44.8319 14.8826C44.8576 16.7227 43.3867 18.2353 41.5466 18.261L37.3287 18.32Z" stroke="url(#paint0_linear_5818_12817)" stroke-opacity="0.32" stroke-width="0.858505" stroke-linecap="round" stroke-linejoin="round"/>
<path d="M37.0279 18.32C35.6579 18.3392 34.4934 19.3304 34.2624 20.6809C33.8815 22.9068 33.4299 26.6912 33.5023 31.8759C33.5748 37.0605 34.1321 40.831 34.5751 43.0453C34.8439 44.3887 36.0356 45.347 37.4056 45.328L41.6235 45.269C43.4636 45.2433 44.9762 46.7142 45.0019 48.5543L45.126 57.4227C45.167 60.3577 42.8218 62.7694 39.8882 62.8104L34.4392 62.8866C34.4392 62.8866 20.7968 63.0774 20.3631 32.0597C19.9294 1.04194 33.5717 0.85118 33.5717 0.85118L39.0207 0.774981C41.9545 0.733956 44.3661 3.07898 44.4071 6.01277L44.5311 14.8826C44.5568 16.7227 43.0859 18.2353 41.2458 18.261L37.0279 18.32Z" fill="url(#paint1_linear_5818_12817)" fill-opacity="0.4"/>
<rect x="46.0469" y="24.0586" width="6.7082" height="15.932" rx="3.3541" fill="#E2F164"/>
<rect x="58.5527" y="6.45312" width="6.7082" height="51.15" rx="3.3541" fill="#E2F164"/>
<rect x="71.0371" y="21.1289" width="6.7082" height="21.8016" rx="3.3541" fill="#E2F164"/>
<path d="M91.8285 37.372L93.1812 42.3403L94.5339 37.372C94.8736 36.1241 95.0443 35.4991 95.3782 34.9848C95.6726 34.5332 96.058 34.1479 96.5096 33.8534C97.02 33.5196 97.6449 33.3507 98.8967 33.0092L103.865 31.6565L98.8967 30.3038C97.6488 29.9641 97.0258 29.7933 96.5096 29.4595C96.058 29.1651 95.6726 28.7797 95.3782 28.3281C95.0443 27.8177 94.8755 27.1927 94.5339 25.941L93.1812 20.9727L91.8285 25.941C91.4889 27.1889 91.3181 27.8138 90.9843 28.3281C90.6898 28.7797 90.3045 29.1651 89.8529 29.4595C89.3424 29.7933 88.7175 29.9622 87.4657 30.3038L82.4974 31.6565L87.4657 33.0092C88.7136 33.3488 89.3386 33.5196 89.8529 33.8534C90.3045 34.1479 90.6898 34.5332 90.9843 34.9848C91.3181 35.4953 91.487 36.1202 91.8285 37.372Z" fill="#E2F164"/>
<path d="M122.376 46.8477V19.2859H133.25C135.331 19.2859 137.108 19.6582 138.579 20.4029C140.06 21.1386 141.186 22.1838 141.957 23.5386C142.738 24.8844 143.128 26.4679 143.128 28.2892C143.128 30.1195 142.733 31.6941 141.944 33.0129C141.154 34.3228 140.01 35.3277 138.512 36.0275C137.023 36.7273 135.219 37.0772 133.102 37.0772H125.821V32.3939H132.16C133.272 32.3939 134.197 32.2413 134.932 31.9363C135.668 31.6313 136.215 31.1737 136.574 30.5636C136.942 29.9535 137.126 29.1954 137.126 28.2892C137.126 27.3741 136.942 26.6025 136.574 25.9744C136.215 25.3464 135.663 24.8709 134.919 24.5479C134.183 24.2159 133.254 24.05 132.133 24.05H128.203V46.8477H122.376ZM137.26 34.3049L144.11 46.8477H137.678L130.976 34.3049H137.26ZM146.996 46.8477V26.1763H152.729V46.8477H146.996ZM149.876 23.5116C149.024 23.5116 148.293 23.229 147.683 22.6638C147.082 22.0896 146.781 21.4032 146.781 20.6047C146.781 19.8152 147.082 19.1378 147.683 18.5726C148.293 17.9984 149.024 17.7113 149.876 17.7113C150.729 17.7113 151.455 17.9984 152.057 18.5726C152.667 19.1378 152.972 19.8152 152.972 20.6047C152.972 21.4032 152.667 22.0896 152.057 22.6638C151.455 23.229 150.729 23.5116 149.876 23.5116ZM162.913 34.897V46.8477H157.18V26.1763H162.644V29.8234H162.886C163.344 28.6212 164.111 27.6701 165.187 26.9703C166.264 26.2615 167.569 25.9072 169.104 25.9072C170.539 25.9072 171.791 26.2212 172.858 26.8492C173.926 27.4772 174.756 28.3744 175.348 29.5408C175.94 30.6982 176.236 32.0798 176.236 33.6858V46.8477H170.503V34.7086C170.512 33.4436 170.189 32.4567 169.534 31.7479C168.879 31.0301 167.978 30.6713 166.829 30.6713C166.058 30.6713 165.376 30.8372 164.784 31.1692C164.2 31.5012 163.743 31.9856 163.411 32.6227C163.088 33.2507 162.922 34.0088 162.913 34.897ZM189.926 55.0301C188.068 55.0301 186.476 54.7744 185.148 54.263C183.829 53.7605 182.779 53.0742 181.999 52.2039C181.218 51.3336 180.711 50.3557 180.478 49.2701L185.78 48.5568C185.942 48.9695 186.198 49.3553 186.548 49.7142C186.897 50.0731 187.36 50.3602 187.934 50.5755C188.517 50.7998 189.226 50.9119 190.06 50.9119C191.307 50.9119 192.334 50.6069 193.142 49.9968C193.958 49.3957 194.367 48.3863 194.367 46.9688V43.1871H194.124C193.873 43.7613 193.496 44.3041 192.994 44.8155C192.491 45.3269 191.846 45.7441 191.056 46.0671C190.266 46.3901 189.324 46.5516 188.23 46.5516C186.678 46.5516 185.265 46.1927 183.991 45.4749C182.726 44.7482 181.716 43.6402 180.963 42.1508C180.218 40.6525 179.846 38.7595 179.846 36.4716C179.846 34.1299 180.227 32.1741 180.989 30.604C181.752 29.0339 182.766 27.8586 184.031 27.078C185.305 26.2974 186.7 25.9072 188.216 25.9072C189.374 25.9072 190.343 26.1045 191.123 26.4993C191.904 26.8851 192.532 27.3696 193.007 27.9528C193.492 28.527 193.864 29.0922 194.124 29.6485H194.34V26.1763H200.032V47.0495C200.032 48.808 199.602 50.2794 198.74 51.4637C197.879 52.648 196.686 53.5362 195.161 54.1284C193.644 54.7295 191.899 55.0301 189.926 55.0301ZM190.047 42.2451C190.971 42.2451 191.751 42.0163 192.388 41.5587C193.034 41.0922 193.528 40.4282 193.869 39.5669C194.219 38.6967 194.394 37.6559 194.394 36.4447C194.394 35.2335 194.223 34.1838 193.882 33.2955C193.541 32.3984 193.048 31.703 192.402 31.2096C191.756 30.7161 190.971 30.4694 190.047 30.4694C189.105 30.4694 188.311 30.7251 187.665 31.2365C187.019 31.7389 186.53 32.4387 186.198 33.3359C185.866 34.2331 185.7 35.2694 185.7 36.4447C185.7 37.638 185.866 38.6697 186.198 39.54C186.539 40.4013 187.028 41.0697 187.665 41.5452C188.311 42.0118 189.105 42.2451 190.047 42.2451ZM224.225 19.2859H229.985V38.5038C229.985 40.2802 229.585 41.8234 228.787 43.1333C227.997 44.4432 226.898 45.4525 225.49 46.1613C224.081 46.8701 222.444 47.2245 220.578 47.2245C218.918 47.2245 217.411 46.9329 216.056 46.3497C214.71 45.7576 213.642 44.8604 212.853 43.6581C212.063 42.4469 211.673 40.9262 211.682 39.0959H217.482C217.5 39.8226 217.648 40.4462 217.926 40.9666C218.214 41.478 218.604 41.8727 219.097 42.1508C219.6 42.42 220.192 42.5546 220.874 42.5546C221.591 42.5546 222.197 42.4021 222.691 42.097C223.193 41.783 223.574 41.3254 223.834 40.7243C224.095 40.1232 224.225 39.383 224.225 38.5038V19.2859ZM243.973 47.2514C241.847 47.2514 240.017 46.8207 238.483 45.9594C236.957 45.0892 235.782 43.86 234.957 42.272C234.131 40.675 233.718 38.7864 233.718 36.6062C233.718 34.4798 234.131 32.6137 234.957 31.0077C235.782 29.4017 236.944 28.1501 238.442 27.2529C239.949 26.3558 241.717 25.9072 243.745 25.9072C245.108 25.9072 246.378 26.127 247.553 26.5666C248.737 26.9972 249.769 27.6477 250.649 28.518C251.537 29.3883 252.228 30.4828 252.721 31.8017C253.214 33.1116 253.461 34.6458 253.461 36.4043V37.9789H236.006V34.426H248.065C248.065 33.6006 247.885 32.8694 247.526 32.2324C247.167 31.5954 246.669 31.0974 246.032 30.7385C245.404 30.3707 244.673 30.1868 243.839 30.1868C242.969 30.1868 242.197 30.3886 241.524 30.7924C240.86 31.1871 240.34 31.721 239.963 32.3939C239.586 33.0578 239.393 33.798 239.384 34.6144V37.9924C239.384 39.0152 239.573 39.8989 239.949 40.6436C240.335 41.3882 240.878 41.9624 241.578 42.3662C242.278 42.7699 243.108 42.9718 244.068 42.9718C244.705 42.9718 245.288 42.8821 245.817 42.7026C246.346 42.5232 246.8 42.254 247.176 41.8951C247.553 41.5363 247.84 41.0966 248.038 40.5763L253.34 40.9262C253.071 42.2002 252.519 43.3127 251.685 44.2637C250.859 45.2058 249.792 45.9415 248.482 46.4708C247.181 46.9912 245.678 47.2514 243.973 47.2514ZM262.793 34.897V46.8477H257.06V26.1763H262.524V29.8234H262.767C263.224 28.6212 263.991 27.6701 265.068 26.9703C266.144 26.2615 267.45 25.9072 268.984 25.9072C270.42 25.9072 271.671 26.2212 272.739 26.8492C273.807 27.4772 274.636 28.3744 275.229 29.5408C275.821 30.6982 276.117 32.0798 276.117 33.6858V46.8477H270.384V34.7086C270.393 33.4436 270.07 32.4567 269.415 31.7479C268.76 31.0301 267.858 30.6713 266.71 30.6713C265.938 30.6713 265.256 30.8372 264.664 31.1692C264.081 31.5012 263.623 31.9856 263.291 32.6227C262.968 33.2507 262.802 34.0088 262.793 34.897ZM286.226 34.897V46.8477H280.493V26.1763H285.957V29.8234H286.199C286.657 28.6212 287.424 27.6701 288.501 26.9703C289.577 26.2615 290.883 25.9072 292.417 25.9072C293.852 25.9072 295.104 26.2212 296.172 26.8492C297.239 27.4772 298.069 28.3744 298.661 29.5408C299.254 30.6982 299.55 32.0798 299.55 33.6858V46.8477H293.817V34.7086C293.825 33.4436 293.502 32.4567 292.848 31.7479C292.193 31.0301 291.291 30.6713 290.143 30.6713C289.371 30.6713 288.689 30.8372 288.097 31.1692C287.514 31.5012 287.056 31.9856 286.724 32.6227C286.401 33.2507 286.235 34.0088 286.226 34.897ZM306.725 54.5994C305.998 54.5994 305.317 54.5411 304.68 54.4245C304.052 54.3168 303.531 54.1777 303.118 54.0073L304.41 49.7276C305.083 49.934 305.689 50.0462 306.227 50.0641C306.775 50.082 307.246 49.9564 307.64 49.6873C308.044 49.4181 308.372 48.9605 308.623 48.3146L308.959 47.4398L301.544 26.1763H307.573L311.853 41.3568H312.068L316.388 26.1763H322.457L314.423 49.0817C314.037 50.1942 313.512 51.1632 312.849 51.9886C312.194 52.823 311.364 53.4645 310.359 53.9131C309.354 54.3706 308.143 54.5994 306.725 54.5994Z" fill="white"/>
<defs>
<linearGradient id="paint0_linear_5818_12817" x1="75.0561" y1="-7.67262" x2="16.9578" y2="52.0735" gradientUnits="userSpaceOnUse">
<stop stop-color="white"/>
<stop offset="1" stop-color="white" stop-opacity="0"/>
</linearGradient>
<linearGradient id="paint1_linear_5818_12817" x1="54.2502" y1="13.414" x2="26.9114" y2="41.5283" gradientUnits="userSpaceOnUse">
<stop stop-color="white"/>
<stop offset="1" stop-color="white" stop-opacity="0"/>
</linearGradient>
</defs>
</svg>
